<svg width="55" height="55" viewBox="0 0 55 55" fill="none" xmlns="http://www.w3.org/2000/svg">
<circle cx="27.5" cy="27.5" r="27.5" fill="white"/>
<path d="M39 20.9998C38.0424 21.6753 36.9821 22.1919 35.86 22.5298C35.2577 21.8373 34.4573 21.3465 33.567 21.1237C32.6767 20.901 31.7395 20.957 30.8821 21.2843C30.0247 21.6115 29.2884 22.1942 28.773 22.9535C28.2575 23.7128 27.9877 24.6121 28 25.5298V26.5298C26.2426 26.5754 24.5013 26.1856 22.931 25.3952C21.3607 24.6049 20.0103 23.4384 19 21.9998C19 21.9998 15 30.9998 24 34.9998C21.9405 36.3978 19.4872 37.0987 17 36.9998C26 41.9998 37 36.9998 37 25.4998C36.9991 25.2213 36.9723 24.9434 36.92 24.6698C37.9406 23.6633 38.6608 22.3925 39 20.9998V20.9998Z" stroke="black" stroke-width="2" stroke-linecap="round" stroke-linejoin="round"/>
</svg>
