<svg width="55" height="55" viewBox="0 0 55 55" fill="none" xmlns="http://www.w3.org/2000/svg">
<circle cx="27.5" cy="27.5" r="27.5" fill="white"/>
<path d="M38.5406 22.7395C38.4218 22.2845 38.1799 21.8677 37.8392 21.531C37.4986 21.1943 37.0713 20.9498 36.6006 20.8221C34.8806 20.4194 28.0006 20.4194 28.0006 20.4194C28.0006 20.4194 21.1206 20.4194 19.4006 20.8604C18.9298 20.9881 18.5025 21.2327 18.1619 21.5693C17.8213 21.906 17.5794 22.3229 17.4606 22.7779C17.1458 24.4514 16.9918 26.1491 17.0006 27.8495C16.9894 29.5628 17.1433 31.2734 17.4606 32.9595C17.5915 33.4004 17.8389 33.8014 18.1787 34.1239C18.5186 34.4463 18.9394 34.6793 19.4006 34.8003C21.1206 35.2413 28.0006 35.2413 28.0006 35.2413C28.0006 35.2413 34.8806 35.2413 36.6006 34.8003C37.0713 34.6726 37.4986 34.428 37.8392 34.0914C38.1799 33.7547 38.4218 33.3378 38.5406 32.8828C38.8529 31.2219 39.0069 29.5372 39.0006 27.8495C39.0118 26.1362 38.8578 24.4256 38.5406 22.7395V22.7395Z" stroke="black" stroke-width="2" stroke-linecap="round" stroke-linejoin="round"/>
<path d="M25.7505 30.9849L31.5005 27.8499L25.7505 24.7148V30.9849Z" stroke="black" stroke-width="2" stroke-linecap="round" stroke-linejoin="round"/>
</svg>
