<svg width="140" height="140" viewBox="0 0 140 140" fill="none" xmlns="http://www.w3.org/2000/svg">
<path d="M106.75 49.7188H113.75C116.375 49.7188 118.563 51.9063 118.563 54.5313V102.437C118.563 105.062 116.375 107.25 113.75 107.25H26.25C23.625 107.25 21.4375 105.062 21.4375 102.437V54.5313C21.4375 51.9063 23.625 49.7188 26.25 49.7188H46.8125" stroke="white" stroke-width="2" stroke-miterlimit="10"/>
<path d="M36.0938 107.25V49.7188" stroke="white" stroke-width="2" stroke-miterlimit="10"/>
<path d="M29.0938 87.7812V69.1875" stroke="white" stroke-width="2" stroke-miterlimit="10"/>
<path d="M103.906 107.25V54.0938" stroke="white" stroke-width="2" stroke-miterlimit="10"/>
<path d="M80.9375 58.6875L62.3437 77.2813C62.125 77.5 61.9062 77.5 61.9062 77.2813L45.0625 60.4375C44.8438 60.2187 44.8438 60 45.0625 60L63.6562 41.4062C63.875 41.1875 64.0937 41.1875 64.0937 41.4062L80.9375 58.25C81.1563 58.25 81.1563 58.4687 80.9375 58.6875Z" stroke="white" stroke-width="2" stroke-miterlimit="10"/>
<path d="M65.1875 61.75L74.5937 52.3438" stroke="white" stroke-width="2" stroke-miterlimit="10"/>
<path d="M63 63.9375L60.375 66.5625" stroke="white" stroke-width="2" stroke-miterlimit="10"/>
<path d="M57.9687 74.2188L53.375 78.8125L43.5312 68.9687L48.125 64.375" stroke="white" stroke-width="2" stroke-miterlimit="10"/>
<path d="M64.0938 40.9688L80.9375 12.75C81.1563 12.5312 81.375 12.5312 81.375 12.75L109.594 40.9688C109.812 41.1875 109.812 41.4063 109.594 41.4063L81.375 58.25" stroke="white" stroke-width="2" stroke-miterlimit="10"/>
<path d="M84 87.5625C83.5625 88 83.3438 88 83.125 87.7813L67.5938 72.25L74.1563 65.6875L84 75.5312C87.5 78.5937 87.5 84.0625 84 87.5625Z" stroke="white" stroke-width="2" stroke-miterlimit="10"/>
<path d="M78.75 60.875L80.7188 62.8437C83.3438 65.4687 83.3438 69.4062 80.7188 72.0312" stroke="white" stroke-width="2" stroke-miterlimit="10"/>
<path d="M91.4375 22.8125C93.625 20.625 97.3438 20.625 99.5313 22.8125C101.719 25 101.719 28.7188 99.5313 30.9063" stroke="white" stroke-width="2" stroke-miterlimit="10"/>
<path d="M50.3125 95.4375H54.6875" stroke="white" stroke-width="2" stroke-miterlimit="10"/>
<path d="M59.0625 95.4375H63.4375" stroke="white" stroke-width="2" stroke-miterlimit="10"/>
<path d="M67.8125 95.4375H72.1875" stroke="white" stroke-width="2" stroke-miterlimit="10"/>
<path d="M76.5625 95.4375H80.9375" stroke="white" stroke-width="2" stroke-miterlimit="10"/>
<path d="M85.3125 95.4375H89.6875" stroke="white" stroke-width="2" stroke-miterlimit="10"/>
</svg>
