<svg width="141" height="140" viewBox="0 0 141 140" fill="none" xmlns="http://www.w3.org/2000/svg">
<path d="M46.2188 61.4688H27.625V117.25C27.625 117.469 27.8438 117.687 28.0625 117.687H111.187C111.406 117.687 111.625 117.469 111.625 117.25V65.8438L120.375 54.9062H101.563L95.6563 61.4688H78.5938" stroke="white" stroke-width="2" stroke-miterlimit="10"/>
<path d="M27.625 61.4688L20.625 51.1875V50.9688H33.9688L41.625 61.4688" stroke="white" stroke-width="2" stroke-miterlimit="10"/>
<path d="M95.4375 117.687V66.5" stroke="white" stroke-width="2" stroke-miterlimit="10"/>
<path d="M107.469 66.5H100.25" stroke="white" stroke-width="2" stroke-miterlimit="10"/>
<path d="M73.125 58.8437V70H81.6563C81.875 70 82.0938 70.4375 81.875 70.6562L62.4063 90.125C62.1875 90.3438 61.9688 90.3438 61.9688 90.125L42.5 70.6562C42.2813 70.4375 42.5 70 42.7187 70H51.25V58.4062" stroke="white" stroke-width="2" stroke-miterlimit="10"/>
<path d="M89.75 22.3125V40.9063H96.3125C96.5312 40.9063 96.75 41.125 96.5313 41.3437L81.4375 56.4375C81.4375 56.4375 81.2187 56.4375 81 56.4375L77.0625 52.5" stroke="white" stroke-width="2" stroke-miterlimit="10"/>
<path d="M73.125 24.2812V58.8437" stroke="white" stroke-width="2" stroke-miterlimit="10" stroke-dasharray="1.99 1.99"/>
<path d="M62.1875 43.9688V78.5312" stroke="white" stroke-width="2" stroke-miterlimit="10" stroke-dasharray="1.99 1.99"/>
</svg>
