<svg width="121" height="120" viewBox="0 0 121 120" fill="none" xmlns="http://www.w3.org/2000/svg">
<g clip-path="url(#clip0_53_17)">
<path d="M118 10H68V5C68 3.67392 67.4732 2.40215 66.5355 1.46447C65.5979 0.526784 64.3261 0 63 0L58 0C56.6739 0 55.4021 0.526784 54.4645 1.46447C53.5268 2.40215 53 3.67392 53 5V10H3C2.33696 10 1.70107 10.2634 1.23223 10.7322C0.763392 11.2011 0.5 11.837 0.5 12.5L0.5 22.5C0.5 23.163 0.763392 23.7989 1.23223 24.2678C1.70107 24.7366 2.33696 25 3 25H5.5V85C5.5 87.6522 6.55357 90.1957 8.42893 92.0711C10.3043 93.9464 12.8478 95 15.5 95H50.5C51.163 95 51.7989 94.7366 52.2678 94.2678C52.7366 93.7989 53 93.163 53 92.5C53 91.837 52.7366 91.2011 52.2678 90.7322C51.7989 90.2634 51.163 90 50.5 90H15.5C14.1739 90 12.9021 89.4732 11.9645 88.5355C11.0268 87.5979 10.5 86.3261 10.5 85V25H110.5V85C110.5 86.3261 109.973 87.5979 109.036 88.5355C108.098 89.4732 106.826 90 105.5 90H65.5C64.5072 89.971 63.5189 90.1451 62.5959 90.5117C61.6728 90.8784 60.8344 91.4298 60.1321 92.1321C59.4298 92.8344 58.8784 93.6728 58.5117 94.5959C58.1451 95.519 57.971 96.5072 58 97.5V100H55.5C54.8396 99.986 54.1831 100.106 53.5702 100.352C52.9572 100.598 52.4005 100.966 51.9333 101.433C51.4662 101.9 51.0985 102.457 50.8521 103.07C50.6058 103.683 50.486 104.34 50.5 105V117.5C50.5 118.163 50.7634 118.799 51.2322 119.268C51.7011 119.737 52.337 120 53 120H60.5C61.163 120 61.7989 119.737 62.2678 119.268C62.7366 118.799 63 118.163 63 117.5V110C63 109.337 62.7366 108.701 62.2678 108.232C61.7989 107.763 61.163 107.5 60.5 107.5C59.837 107.5 59.2011 107.763 58.7322 108.232C58.2634 108.701 58 109.337 58 110V115H55.5V105H60.5C61.163 105 61.7989 104.737 62.2678 104.268C62.7366 103.799 63 103.163 63 102.5V97.5C62.967 97.1635 63.0089 96.8239 63.1229 96.5056C63.2369 96.1872 63.42 95.8981 63.6591 95.6591C63.8981 95.42 64.1872 95.2369 64.5056 95.1229C64.8239 95.0089 65.1635 94.967 65.5 95H105.5C108.152 95 110.696 93.9464 112.571 92.0711C114.446 90.1957 115.5 87.6522 115.5 85V25H118C118.663 25 119.299 24.7366 119.768 24.2678C120.237 23.7989 120.5 23.163 120.5 22.5V12.5C120.5 11.837 120.237 11.2011 119.768 10.7322C119.299 10.2634 118.663 10 118 10ZM115.5 20H5.5V15H55.5C56.163 15 56.7989 14.7366 57.2678 14.2678C57.7366 13.7989 58 13.163 58 12.5V5H63V12.5C63 13.163 63.2634 13.7989 63.7322 14.2678C64.2011 14.7366 64.837 15 65.5 15H115.5V20Z" fill="white"/>
<path d="M20.5 80.0001C20.5 80.6631 20.7634 81.299 21.2322 81.7679C21.7011 82.2367 22.337 82.5001 23 82.5001H70.38C70.6625 82.5251 71.2925 82.5701 72.1775 82.5701C78.0041 82.6754 83.6742 80.6815 88.1525 76.9526C93.0275 72.5901 95.5 66.0426 95.5 57.5001V41.0351L98.7325 44.2676C99.204 44.723 99.8355 44.975 100.491 44.9693C101.146 44.9636 101.774 44.7006 102.237 44.2371C102.701 43.7736 102.963 43.1466 102.969 42.4911C102.975 41.8356 102.723 41.2041 102.268 40.7326L94.7675 33.2326C94.5347 32.9993 94.2576 32.8148 93.9525 32.6901C93.3409 32.4373 92.6541 32.4373 92.0425 32.6901C91.7374 32.8148 91.4603 32.9993 91.2275 33.2326L83.7275 40.7326C83.2721 41.2041 83.0201 41.8356 83.0258 42.4911C83.0315 43.1466 83.2944 43.7736 83.7579 44.2371C84.2215 44.7006 84.8485 44.9636 85.504 44.9693C86.1595 44.975 86.791 44.723 87.2625 44.2676L90.5 41.0351V57.5001C90.5 64.5401 88.5975 69.8226 84.8475 73.2001C80.8665 76.3575 75.8416 77.8983 70.775 77.5151C70.6837 77.505 70.5919 77.5 70.5 77.5001H23C22.337 77.5001 21.7011 77.7635 21.2322 78.2323C20.7634 78.7012 20.5 79.337 20.5 80.0001Z" fill="white"/>
<path d="M23.7325 66.7675C24.2013 67.2362 24.8371 67.4995 25.5 67.4995C26.1629 67.4995 26.7987 67.2362 27.2675 66.7675L30.5 63.535L33.7325 66.7675C34.204 67.2229 34.8355 67.4749 35.491 67.4692C36.1465 67.4635 36.7735 67.2006 37.237 66.7371C37.7006 66.2736 37.9635 65.6465 37.9692 64.991C37.9749 64.3356 37.7229 63.704 37.2675 63.2325L34.035 60L37.2675 56.7675C37.7229 56.296 37.9749 55.6645 37.9692 55.009C37.9635 54.3535 37.7006 53.7265 37.237 53.263C36.7735 52.7995 36.1465 52.5366 35.491 52.5309C34.8355 52.5252 34.204 52.7771 33.7325 53.2325L30.5 56.465L27.2675 53.2325C26.796 52.7771 26.1645 52.5252 25.509 52.5309C24.8535 52.5366 24.2265 52.7995 23.763 53.263C23.2994 53.7265 23.0365 54.3535 23.0308 55.009C23.0251 55.6645 23.2771 56.296 23.7325 56.7675L26.965 60L23.7325 63.2325C23.2638 63.7014 23.0005 64.3371 23.0005 65C23.0005 65.663 23.2638 66.2987 23.7325 66.7675Z" fill="white"/>
<path d="M38.7325 46.7675C39.2013 47.2362 39.8371 47.4995 40.5 47.4995C41.1629 47.4995 41.7987 47.2362 42.2675 46.7675L45.5 43.535L48.7325 46.7675C49.204 47.2229 49.8355 47.4749 50.491 47.4692C51.1465 47.4635 51.7735 47.2006 52.237 46.7371C52.7006 46.2736 52.9635 45.6465 52.9692 44.991C52.9749 44.3356 52.7229 43.704 52.2675 43.2325L49.035 40L52.2675 36.7675C52.7229 36.296 52.9749 35.6645 52.9692 35.009C52.9635 34.3535 52.7006 33.7265 52.237 33.263C51.7735 32.7995 51.1465 32.5366 50.491 32.5309C49.8355 32.5252 49.204 32.7771 48.7325 33.2325L45.5 36.465L42.2675 33.2325C41.796 32.7771 41.1645 32.5252 40.509 32.5309C39.8535 32.5366 39.2265 32.7995 38.763 33.263C38.2994 33.7265 38.0365 34.3535 38.0308 35.009C38.0251 35.6645 38.2771 36.296 38.7325 36.7675L41.965 40L38.7325 43.2325C38.2638 43.7014 38.0005 44.3371 38.0005 45C38.0005 45.663 38.2638 46.2987 38.7325 46.7675Z" fill="white"/>
<path d="M67.2675 53.2325C66.7987 52.7638 66.1629 52.5005 65.5 52.5005C64.8371 52.5005 64.2013 52.7638 63.7325 53.2325L60.5 56.465L57.2675 53.2325C56.796 52.7771 56.1645 52.5251 55.509 52.5308C54.8535 52.5365 54.2265 52.7994 53.763 53.2629C53.2994 53.7264 53.0365 54.3535 53.0308 55.009C53.0251 55.6644 53.2771 56.296 53.7325 56.7675L56.965 60L53.7325 63.2325C53.4937 63.4631 53.3033 63.7389 53.1722 64.0439C53.0412 64.349 52.9723 64.677 52.9694 65.009C52.9665 65.3409 53.0297 65.6701 53.1554 65.9773C53.2811 66.2846 53.4668 66.5637 53.7015 66.7984C53.9362 67.0332 54.2154 67.2188 54.5226 67.3445C54.8299 67.4702 55.1591 67.5335 55.491 67.5306C55.8229 67.5277 56.151 67.4587 56.456 67.3277C56.761 67.1967 57.0369 67.0062 57.2675 66.7675L60.5 63.535L63.7325 66.7675C64.204 67.2229 64.8355 67.4748 65.491 67.4691C66.1465 67.4634 66.7735 67.2005 67.237 66.737C67.7006 66.2735 67.9635 65.6464 67.9692 64.991C67.9749 64.3355 67.7229 63.704 67.2675 63.2325L64.035 60L67.2675 56.7675C67.7362 56.2986 67.9995 55.6629 67.9995 55C67.9995 54.337 67.7362 53.7013 67.2675 53.2325Z" fill="white"/>
</g>
<defs>
<clipPath id="clip0_53_17">
<rect width="120" height="120" fill="white" transform="translate(0.5)"/>
</clipPath>
</defs>
</svg>
