<svg width="120" height="120" viewBox="0 0 120 120" fill="none" xmlns="http://www.w3.org/2000/svg">
<path d="M74.4827 51.7242H45.5173V88.9658H74.4829V51.7242H74.4827ZM70.3449 84.8279H49.6551V55.8622H70.3449V84.8279ZM39.3104 51.7242H10.3449V88.9658H39.3104V51.7242ZM35.1724 84.8279H14.4827V55.8622H35.1724V84.8279ZM109.655 51.7242H80.6898V88.9658H109.655L109.655 51.7242ZM105.517 84.8279H84.8277V55.8622H105.517V84.8279ZM26.8965 26.8967C24.6102 26.8967 22.7584 28.7485 22.7584 31.0348C22.7584 33.321 24.6102 35.1728 26.8965 35.1728C29.1806 35.1728 31.0345 33.321 31.0345 31.0348C31.0345 28.7505 29.1827 26.8967 26.8965 26.8967ZM111.724 18.6208H8.27588C3.70549 18.6208 0 22.3263 0 26.8967V93.1034C0 97.6742 3.70549 101.379 8.27588 101.379H111.724C116.295 101.379 120 97.6742 120 93.1034V26.8967C120 22.3263 116.295 18.6208 111.724 18.6208ZM115.862 88.9659C115.862 93.5363 114.225 97.2414 109.655 97.2414H12.4139C7.84353 97.2414 4.13804 93.5363 4.13804 88.9659V43.4485H115.862L115.862 88.9659ZM115.862 39.3105H4.13804V31.0346C4.13804 26.4642 7.84353 22.7587 12.4139 22.7587H107.586C112.157 22.7587 115.862 26.4642 115.862 31.0346L115.862 39.3105ZM14.4827 26.8967C12.1986 26.8967 10.3447 28.7507 10.3447 31.0348C10.3447 33.321 12.1965 35.1728 14.4827 35.1728C16.7688 35.1728 18.6206 33.321 18.6206 31.0348C18.6206 28.7505 16.7688 26.8967 14.4827 26.8967ZM39.3104 26.8967C37.0263 26.8967 35.1724 28.7485 35.1724 31.0348C35.1724 33.321 37.0241 35.1728 39.3104 35.1728C41.5967 35.1728 43.4484 33.321 43.4484 31.0348C43.4482 28.7505 41.5967 26.8967 39.3104 26.8967Z" fill="white"/>
</svg>
